<?xml version="1.0" encoding="utf-8"?>
<!-- Generator: Adobe Illustrator 16.0.3, SVG Export Plug-In . SVG Version: 6.00 Build 0)  -->
<!DOCTYPE svg PUBLIC "-//W3C//DTD SVG 1.1//EN" "http://www.w3.org/Graphics/SVG/1.1/DTD/svg11.dtd">
<svg version="1.1" id="Layer_1" xmlns="http://www.w3.org/2000/svg" xmlns:xlink="http://www.w3.org/1999/xlink" x="0px" y="0px"
	 width="758.603px" height="247.692px" viewBox="0 0 758.603 247.692" enable-background="new 0 0 758.603 247.692"
	 xml:space="preserve">
<g>
	<g>
		<path d="M339.169,200.622c0,2.853-0.671,5.303-2.013,7.344c-1.342,2.04-3.102,3.788-5.283,5.243
			c1.537,0.586,2.969,1.397,4.3,2.431c1.326,1.038,2.489,2.267,3.48,3.695c0.991,1.424,1.775,3.047,2.349,4.865
			s0.863,3.816,0.863,5.997c0,2.52-0.441,4.842-1.323,6.965c-0.882,2.126-2.092,3.963-3.629,5.517
			c-1.537,1.552-3.328,2.77-5.369,3.651c-2.044,0.878-4.209,1.335-6.504,1.362h-28.653c-0.39-0.027-0.699-0.152-0.921-0.379
			c-0.226-0.222-0.351-0.503-0.378-0.839v-59.527c0-0.644,0.152-1.062,0.46-1.256c0.308-0.199,0.616-0.297,0.924-0.297h25.337
			c2.267,0,4.397,0.367,6.399,1.092c1.997,0.727,3.733,1.761,5.201,3.103c1.467,1.347,2.629,2.953,3.48,4.826
			C338.744,196.288,339.169,198.36,339.169,200.622z M334.596,200.708c0-1.817-0.363-3.405-1.088-4.764
			c-0.729-1.354-1.713-2.48-2.958-3.375c-1.245-0.894-2.708-1.561-4.385-1.994c-1.678-0.433-3.48-0.651-5.412-0.651h-20.05v21.818
			h22.063c1.65,0,3.195-0.261,4.635-0.776c1.443-0.52,2.692-1.26,3.757-2.225c1.061-0.967,1.9-2.126,2.516-3.483
			C334.288,203.903,334.596,202.386,334.596,200.708z M300.703,216.271v26.848h25.38c-0.027,0-0.043,0.016-0.043,0.043
			c1.596-0.055,3.133-0.378,4.615-0.968c1.483-0.585,2.782-1.424,3.902-2.516c1.116-1.089,2.014-2.424,2.685-4.004
			s1.006-3.379,1.006-5.392c0-2.014-0.351-3.883-1.049-5.6c-0.699-1.721-1.624-3.203-2.77-4.447
			c-1.147-1.245-2.466-2.217-3.964-2.914c-1.494-0.703-3.055-1.051-4.678-1.051H300.703z"/>
		<path d="M395.805,246.561c-0.562-1.343-1.119-2.7-1.678-4.069c-0.561-1.369-1.119-2.743-1.678-4.112h-37.295l-3.313,8.014
			c-0.394,0.866-0.94,1.3-1.639,1.3c-0.948,0-1.705-0.134-2.263-0.398c-0.562-0.266-0.839-0.581-0.839-0.944
			c0-0.254,0.055-0.487,0.167-0.714l24.499-58.563c0.109-0.25,0.25-0.543,0.417-0.878c0.168-0.335,0.343-0.651,0.527-0.944
			c0.179-0.297,0.371-0.538,0.566-0.737c0.195-0.194,0.378-0.293,0.546-0.293c0.558,0,0.976,0.309,1.256,0.925l25.255,60.577
			c0.055,0.082,0.098,0.207,0.124,0.374c0.028,0.168,0.044,0.309,0.044,0.422c0,0.309-0.324,0.581-0.964,0.819
			c-0.645,0.238-1.373,0.355-2.182,0.355C396.629,247.692,396.109,247.313,395.805,246.561z M357.042,233.763h33.476l-15.27-36.831
			c-0.222-0.559-0.453-1.124-0.691-1.697s-0.484-1.139-0.733-1.701c-0.059,0-0.085,0.027-0.085,0.086L357.042,233.763z"/>
		<path d="M453.693,208.929c0,1.959-0.237,3.891-0.714,5.791c-0.472,1.899-1.174,3.706-2.095,5.411
			c-0.925,1.705-2.057,3.293-3.398,4.76c-1.342,1.471-2.88,2.735-4.616,3.796l8.058,17.035c0.027,0.055,0.055,0.168,0.081,0.335
			c0.027,0.168,0.043,0.309,0.043,0.418c0,0.309-0.104,0.589-0.315,0.839c-0.211,0.254-0.512,0.379-0.901,0.379h-2.474
			c-0.534,0-0.939-0.293-1.217-0.882l-7.551-15.981c-2.603,1.033-5.566,1.553-8.896,1.553h-17.116v13.714
			c0,1.065-0.542,1.597-1.635,1.597h-1.553c-1.061,0-1.592-0.531-1.592-1.597v-58.98c0-0.476,0.145-0.874,0.438-1.193
			c0.297-0.324,0.636-0.496,1.029-0.527h20.429c3.692,0,7.02,0.659,9.984,1.974c2.966,1.315,5.49,3.067,7.573,5.264
			c2.084,2.196,3.676,4.706,4.783,7.53C453.143,202.987,453.693,205.909,453.693,208.929z M429.698,227.598
			c3.048,0,5.763-0.525,8.14-1.572c2.375-1.049,4.385-2.449,6.02-4.197c1.635-1.744,2.888-3.738,3.753-5.978
			c0.866-2.235,1.304-4.545,1.304-6.922c0-2.375-0.438-4.689-1.304-6.94c-0.865-2.252-2.118-4.261-3.753-6.021
			c-1.635-1.764-3.645-3.176-6.02-4.237c-2.377-1.061-5.092-1.596-8.14-1.596h-17.116v37.463H429.698z"/>
	</g>
	<line stroke="#000000" stroke-width="2" stroke-miterlimit="10" x1="274.875" y1="210.885" x2="162.875" y2="210.885"/>
	<line stroke="#000000" stroke-width="2" stroke-miterlimit="10" x1="598.875" y1="210.885" x2="474.875" y2="210.885"/>
</g>
<g>
	<path d="M0,6.75c0-2.384,1.186-3.574,3.574-3.574h94.888c1.187,0,2.13,0.281,2.825,0.844c0.694,0.562,1.045,1.506,1.045,2.828
		v3.477c0,1.124-0.351,2.017-1.045,2.677c-0.695,0.663-1.639,0.995-2.825,0.995H10.917v74.143h70.87c1.124,0,2.013,0.3,2.676,0.893
		c0.664,0.598,0.991,1.558,0.991,2.88v3.574c0,1.128-0.313,2.017-0.937,2.68c-0.632,0.664-1.545,0.992-2.731,0.992h-70.87V147.1
		c0,2.314-1.256,3.473-3.776,3.473H3.574C1.186,150.572,0,149.414,0,147.1V6.75z"/>
	<path d="M226.794,58.86c0,4.632-0.562,9.196-1.686,13.694c-1.124,4.503-2.778,8.771-4.963,12.806
		c-2.185,4.038-4.861,7.792-8.038,11.265c-3.176,3.476-6.82,6.468-10.917,8.985l19.056,40.296c0.063,0.136,0.133,0.397,0.195,0.796
		c0.07,0.397,0.102,0.729,0.102,0.991c0,0.729-0.25,1.389-0.742,1.986c-0.5,0.596-1.209,0.893-2.138,0.893h-5.853
		c-1.264,0-2.224-0.694-2.879-2.083l-17.87-37.818c-6.157,2.449-13.164,3.671-21.045,3.671h-40.491V146.8
		c0,2.517-1.295,3.772-3.871,3.772h-3.675c-2.512,0-3.769-1.256-3.769-3.772V7.246c0-1.123,0.343-2.068,1.038-2.828
		c0.695-0.762,1.506-1.175,2.435-1.242h48.333c8.74,0,16.613,1.558,23.628,4.667c7.016,3.109,12.985,7.261,17.917,12.454
		c4.923,5.197,8.701,11.135,11.314,17.819C225.491,44.799,226.794,51.713,226.794,58.86z M170.018,103.027
		c7.218,0,13.632-1.24,19.258-3.723c5.626-2.481,10.371-5.785,14.241-9.926c3.878-4.132,6.835-8.849,8.888-14.144
		c2.052-5.29,3.075-10.753,3.075-16.375c0-5.626-1.022-11.101-3.075-16.43c-2.052-5.325-5.009-10.074-8.888-14.24
		c-3.871-4.172-8.615-7.512-14.241-10.028c-5.626-2.513-12.04-3.769-19.258-3.769h-40.491v88.634H170.018z"/>
	<path d="M352.154,3.176c2.512,0,3.776,1.227,3.776,3.672v3.477c0,1.124-0.319,2.017-0.944,2.677
		c-0.632,0.663-1.576,0.995-2.833,0.995h-88.435v74.045h71.462c1.124,0,2.037,0.296,2.731,0.894c0.695,0.597,1.038,1.557,1.038,2.88
		v3.569c0,1.128-0.327,2.021-0.991,2.681c-0.664,0.663-1.584,0.994-2.778,0.994h-71.462v40.694h90.026
		c2.513,0,3.769,1.226,3.769,3.672v3.574c0,2.384-1.225,3.573-3.675,3.573h-97.962c-1.124,0-1.936-0.313-2.435-0.944
		c-0.492-0.628-0.742-1.471-0.742-2.528V6.75c0-1.521,0.382-2.497,1.14-2.93c0.765-0.429,1.607-0.645,2.536-0.645H352.154z"/>
	<path d="M372.208,122.583c0.531-0.66,1.225-1.374,2.083-2.136c0.858-0.76,1.787-1.143,2.778-1.143c0.327,0,0.944,0.168,1.833,0.5
		c0.897,0.331,1.545,0.76,1.935,1.287c2.45,3.375,5.001,6.387,7.648,9.032c2.645,2.648,5.539,4.865,8.685,6.651
		c3.137,1.788,6.577,3.146,10.323,4.07c3.738,0.928,7.952,1.39,12.649,1.39c5.095,0,9.896-0.598,14.397-1.788
		c4.494-1.189,8.435-3.027,11.813-5.508c3.371-2.482,6.048-5.658,8.037-9.528c1.982-3.87,2.974-8.451,2.974-13.746
		c0-4.104-0.827-7.658-2.481-10.671c-1.654-3.012-3.901-5.692-6.75-8.041c-2.84-2.35-6.164-4.416-9.973-6.204
		c-3.808-1.786-7.826-3.538-12.056-5.259c-6.617-2.646-12.789-5.193-18.518-7.644c-5.72-2.446-10.698-5.275-14.936-8.486
		c-4.237-3.207-7.562-6.999-9.972-11.365c-2.419-4.365-3.629-9.758-3.629-16.181c0-5.887,1.03-11.182,3.083-15.879
		c2.044-4.698,4.877-8.67,8.482-11.911c3.604-3.238,7.897-5.721,12.859-7.444C408.438,0.863,413.791,0,419.551,0
		c3.84,0,7.592,0.414,11.268,1.241c3.668,0.827,7.18,2.033,10.519,3.621c3.34,1.588,6.453,3.543,9.333,5.856
		c2.879,2.317,5.47,4.962,7.788,7.943c0.335,0.46,0.562,0.843,0.694,1.14c0.133,0.296,0.203,0.714,0.203,1.24
		c0,0.198-0.203,0.496-0.602,0.894c-0.391,0.398-0.857,0.843-1.389,1.342c-0.53,0.496-1.108,0.991-1.732,1.487
		c-0.632,0.495-1.14,0.909-1.537,1.24c-0.734,0.53-1.389,0.714-1.99,0.546c-0.593-0.164-1.123-0.479-1.584-0.944
		c-4.042-4.432-8.506-7.939-13.398-10.519c-4.9-2.582-10.76-3.87-17.572-3.87c-4.433,0-8.467,0.659-12.111,1.982
		c-3.636,1.326-6.766,3.16-9.379,5.509c-2.614,2.349-4.627,5.146-6.055,8.389c-1.422,3.242-2.131,6.816-2.131,10.717
		c0,4.636,1.037,8.538,3.129,11.714c2.084,3.176,5.01,5.989,8.778,8.438c3.777,2.447,8.257,4.729,13.453,6.848
		c5.188,2.119,10.87,4.432,17.019,6.948c5.432,2.251,10.379,4.616,14.842,7.098c4.464,2.481,8.272,5.275,11.417,8.385
		c3.137,3.113,5.57,6.652,7.296,10.62c1.716,3.972,2.575,8.572,2.575,13.8c0,6.816-1.257,12.821-3.77,18.015
		c-2.513,5.196-5.938,9.563-10.276,13.102c-4.331,3.538-9.427,6.204-15.279,7.99c-5.861,1.787-12.095,2.68-18.712,2.68
		c-9.996,0-19.079-2.036-27.249-6.105s-15.271-10.733-21.287-20c-0.336-0.46-0.578-0.893-0.75-1.291
		c-0.164-0.394-0.242-0.858-0.242-1.39C370.819,123.808,371.279,123.113,372.208,122.583z"/>
	<path d="M603.474,17.667c1.054,0.797,1.584,1.721,1.584,2.778c0,0.597-0.327,1.327-0.99,2.185
		c-0.134,0.133-0.367,0.448-0.695,0.944c-0.335,0.496-0.741,1.026-1.241,1.588c-0.499,0.562-1.006,1.077-1.537,1.538
		c-0.53,0.464-1.03,0.694-1.49,0.694h-0.102h-0.296c-0.195,0-0.461-0.047-0.796-0.148c-0.328-0.098-0.726-0.313-1.187-0.645
		c-5.696-4.369-11.799-7.791-18.314-10.273c-6.516-2.48-13.484-3.722-20.897-3.722c-6.087,0-11.923,0.776-17.519,2.333
		c-5.586,1.554-10.814,3.754-15.676,6.599c-4.87,2.848-9.271,6.254-13.203,10.226c-3.94,3.969-7.312,8.354-10.129,13.148
		c-2.81,4.799-4.979,9.926-6.5,15.389c-1.521,5.458-2.279,11.1-2.279,16.922c0,5.953,0.773,11.661,2.334,17.12
		c1.552,5.462,3.753,10.572,6.594,15.337c2.848,4.764,6.243,9.099,10.175,13c3.941,3.906,8.287,7.249,13.056,10.027
		c4.76,2.778,9.84,4.928,15.231,6.449c5.393,1.525,11.003,2.286,16.824,2.286c13.632,0,26.672-4.467,39.109-13.401l2.482-1.39
		c0.663-0.331,1.193-0.496,1.592-0.496c0.46,0,1.006,0.266,1.631,0.792c0.632,0.531,1.24,1.179,1.841,1.937
		c0.593,0.765,1.093,1.572,1.491,2.434c0.39,0.859,0.593,1.62,0.593,2.283c0,0.593-0.164,1.107-0.499,1.537
		c-0.328,0.434-0.758,0.878-1.288,1.342c-6.555,5.096-13.718,9.049-21.49,11.861c-7.771,2.81-16.192,4.218-25.259,4.218
		c-10.457,0-20.266-1.97-29.434-5.907c-9.162-3.938-17.152-9.328-23.964-16.18c-6.82-6.848-12.197-14.854-16.13-24.019
		c-3.94-9.165-5.907-18.974-5.907-29.431c0-6.948,0.89-13.629,2.677-20.05c1.787-6.419,4.322-12.424,7.592-18.015
		c3.277-5.591,7.211-10.702,11.815-15.333c4.596-4.631,9.691-8.587,15.286-11.861c5.587-3.277,11.61-5.825,18.064-7.644
		c6.453-1.821,13.148-2.73,20.102-2.73c8.864,0,17.198,1.455,25.009,4.366C589.537,8.67,596.785,12.639,603.474,17.667z"/>
	<path d="M607.438,77.022c0-6.948,0.897-13.647,2.685-20.097c1.787-6.453,4.315-12.474,7.592-18.065
		c3.271-5.591,7.211-10.686,11.807-15.286c4.604-4.601,9.692-8.536,15.286-11.811c5.596-3.277,11.612-5.825,18.065-7.644
		c6.453-1.821,13.156-2.73,20.101-2.73c6.945,0,13.648,0.909,20.102,2.73c6.454,1.818,12.47,4.366,18.064,7.644
		c5.588,3.274,10.683,7.21,15.286,11.811c4.597,4.601,8.538,9.695,11.807,15.286c3.278,5.592,5.821,11.612,7.647,18.065
		c1.818,6.449,2.724,13.148,2.724,20.097s-0.905,13.633-2.724,20.051c-1.826,6.419-4.369,12.423-7.647,18.014
		c-3.269,5.595-7.21,10.687-11.807,15.286c-4.604,4.601-9.698,8.538-15.286,11.811c-5.595,3.277-11.61,5.81-18.064,7.593
		c-6.453,1.787-13.156,2.681-20.102,2.681c-6.944,0-13.647-0.894-20.101-2.681c-6.453-1.783-12.47-4.315-18.065-7.593
		c-5.594-3.272-10.682-7.21-15.286-11.811c-4.596-4.6-8.536-9.691-11.807-15.286c-3.276-5.591-5.805-11.595-7.592-18.014
		C608.335,90.655,607.438,83.971,607.438,77.022z M618.456,77.022c0,8.869,1.685,17.223,5.063,25.064
		c3.371,7.838,7.99,14.674,13.844,20.496c5.86,5.825,12.703,10.42,20.546,13.795c7.842,3.375,16.2,5.064,25.063,5.064
		c5.893,0,11.597-0.761,17.121-2.286c5.524-1.521,10.675-3.687,15.435-6.5c4.769-2.813,9.114-6.185,13.055-10.125
		c3.934-3.937,7.312-8.286,10.121-13.051c2.809-4.764,4.994-9.875,6.555-15.334c1.554-5.462,2.334-11.166,2.334-17.124
		c0-8.864-1.709-17.222-5.112-25.06c-3.41-7.843-8.045-14.69-13.897-20.547c-5.859-5.855-12.703-10.487-20.546-13.897
		c-7.842-3.405-16.199-5.11-25.064-5.11c-5.953,0-11.665,0.776-17.12,2.333c-5.462,1.553-10.589,3.738-15.388,6.551
		s-9.161,6.188-13.102,10.124c-3.933,3.938-7.297,8.288-10.074,13.052c-2.777,4.763-4.947,9.909-6.501,15.435
		C619.236,65.428,618.456,71.136,618.456,77.022z"/>
</g>
</svg>
