<?xml version="1.0" encoding="utf-8"?>
<!-- Generator: Adobe Illustrator 16.0.3, SVG Export Plug-In . SVG Version: 6.00 Build 0)  -->
<!DOCTYPE svg PUBLIC "-//W3C//DTD SVG 1.1//EN" "http://www.w3.org/Graphics/SVG/1.1/DTD/svg11.dtd">
<svg version="1.1" id="Capa_1" xmlns="http://www.w3.org/2000/svg" xmlns:xlink="http://www.w3.org/1999/xlink" x="0px" y="0px"
	 width="343.953px" height="397.705px" viewBox="0 0 343.953 397.705" enable-background="new 0 0 343.953 397.705"
	 xml:space="preserve">
<g>
	<g>
		<path fill-rule="evenodd" clip-rule="evenodd" fill="#F2F2F2" d="M54.061,0c0.051,0,0.106,0,0.157,0
			c17.635,27.787,36.227,54.644,53.752,82.96c4.174,6.746,8.271,14.075,12.895,21.127c1.198,1.826,3.527,5.93,5.126,6.213
			c1.206,0.213,3.68-0.497,5.439-0.776c5.275-0.839,10.496-1.709,16.777-1.709c8.346,0,16.516-0.292,23.769-0.62
			c7.713-0.351,15.934,0.777,23.925,0.777c6.129,0,11.162,0.813,16.776,1.707c1.791,0.287,4.108,0.985,5.282,0.776
			c1.683-0.296,3.785-4.276,5.127-6.367c4.453-6.931,8.643-14.354,12.896-21.127c17.611-28.053,35.863-54.684,53.597-82.65
			c8.338,5.796,6.391,20.563,5.591,32.313c-0.425,6.27,0.211,12.678,0.469,19.11c1.135,28.511,2.134,57.045,3.417,85.754
			c0.145,3.264,0.784,6.902,0.313,9.167c-0.64,3.035-5.193,3.71-5.131,7.3c0.035,1.893,4.164,4.06,6.063,5.439
			c6.664,4.838,13.644,9.643,19.882,14.447c4.538,3.492,9.115,6.309,13.36,9.633c4.206,3.293,8.455,7,10.409,12.427
			c0,0.464,0,0.933,0,1.401c-4.436,9.98-12.006,17.877-18.49,26.25c-3.304,4.28-6.479,8.498-9.785,12.586
			c-3.289,4.07-7.108,7.578-10.873,11.339c-14.896,14.9-30.34,29.321-44.9,44.433c-3.698,3.847-7.456,7.627-10.098,12.273
			c-7.96,14.008-16.859,27.998-26.254,40.702c-12.798,17.312-25.824,33.808-38.213,51.111c-2.282,0.979-5.135,1.394-8.084,1.709
			c-2.174,0-4.346,0-6.52,0c-4.093-0.503-8.954-0.008-11.81-1.864c-1.615-1.051-3.223-4.202-4.819-6.372
			c-17.526-23.792-36.113-45.72-51.728-71.306c-2.923-4.787-5.58-9.458-8.236-14.136c-2.595-4.569-6.364-8.486-9.941-12.271
			c-7.237-7.656-14.994-14.842-22.528-22.217c-7.538-7.381-15.095-14.787-22.524-22.219c-3.765-3.762-7.769-7.27-11.03-11.339
			c-3.313-4.128-6.504-8.311-9.79-12.587C11.916,215.05,4.511,207.044,0,197.146c0-0.468,0-0.933,0-1.4
			c0.519-1.619,1.335-3.313,2.33-4.663c2.829-3.824,7.097-6.855,11.186-9.941c4.085-3.082,8.4-6.036,12.271-9.009
			c5.731-4.403,12.411-8.687,18.49-13.206c1.99-1.48,5.408-3.466,5.439-5.282c0.051-3.521-4.377-3.863-5.127-6.99
			c-0.492-2.042,0.18-5.531,0.309-8.701c1.346-33.391,2.793-66.15,4.038-99.425c0.223-5.95-0.671-12.169-0.932-17.868
			C47.6,11.81,49.325,3.816,54.061,0z M53.597,23.615c-0.391,1.602,0.328,4.814,0.464,7.146c2.177,37.009-1.299,76.558-0.464,112.32
			c1.635,1.855,3.387,3.716,6.68,3.417c2.469-0.224,5.181-2.93,7.304-4.35c10.952-7.335,21.833-14.524,32.465-21.438
			c4.432-2.883,9.036-5.576,11.962-9.631c-5.162-12.181-12.379-22.491-18.95-33.092c-11.482-18.525-22.243-37.2-33.402-56.084
			c-1.104-0.244-1.709-0.983-2.33-1.707C56.687,21.258,53.944,22.183,53.597,23.615z M286.162,20.661
			c-0.059,1.03-1.222,0.954-1.865,1.399c-13.125,22.643-26.246,44.673-39.929,66.337c-2.329,3.693-4.635,7.173-6.52,11.184
			c-1.85,3.935-4.171,7.702-5.907,11.808c2.984,4.056,7.795,6.576,12.274,9.475c10.792,6.98,21.704,14.438,32.626,21.75
			c2.075,1.391,4.646,3.837,6.831,4.041c3.531,0.328,4.847-1.676,6.683-3.264c0.348-29.526-1.088-59.604-1.088-90.26
			c0-6.871,0.207-15.146,0.625-22.214c0.124-2.22,0.9-5.788,0.463-7.302c-0.436-1.514-2.835-1.841-3.729-3.264
			C286.442,20.427,286.275,20.517,286.162,20.661z M127.857,117.757c3.398,46.108,16.028,84.109,22.368,127.703
			c3.165,21.732,6.489,43.425,10.102,64.938c3.359,20.011,5.997,40.741,10.25,59.964c0.238,1.065,0.183,2.759,1.4,3.422
			c1.182-0.659,1.155-2.174,1.396-3.266c0.871-3.929,1.456-7.854,2.177-11.807c6.797-37.229,12.653-75.133,18.174-113.096
			c6.344-43.594,18.975-81.597,22.376-127.703C186.798,116.612,157.143,116.243,127.857,117.757z M152.554,315.213
			c-3.593-21.124-6.028-43.546-9.473-65.867c-1.713-11.093-2.712-22.657-5.283-32.317c-2.63-9.875-6.512-18.974-8.853-28.896
			c-2.345-9.91-3.785-21.373-5.439-32.157c-0.893-5.819-1.607-10.492-2.485-16.313c-0.807-5.357-1.057-14.278-4.194-17.246
			c-0.675-0.634-0.577-0.954-1.553-0.931c-0.37,0.008-0.425,0.195-0.624,0.311c-8.467,4.933-17.776,9.651-26.563,15.846
			c-5.872,4.138-12.497,8.859-18.49,13.206c-1.857,1.348-5.053,3.293-5.747,4.971c-2.111,5.072,1.635,11.465,3.417,15.07
			c2.369,4.789,3.887,8.32,5.283,14.137c16.629,0.89,29.005-3.823,45.36-3.73c5.166,11.525,10.117,23.917,14.448,36.508
			c0.647,1.881,1.584,4.046,1.401,5.903c-0.191,1.896-1.896,4.027-3.106,5.751c-3.781,5.372-8.47,9.871-11.811,14.912
			c-4.939,7.464-8.548,15.095-12.895,22.681c11.167,23.736,24.284,47.014,36.82,69.597c2.555,4.604,5.275,9.153,7.456,13.827
			c3.379,7.246,7.265,14.179,11.807,20.199c1.448,1.916,2.985,4.155,5.283,5.127C161.379,357.226,156.237,336.852,152.554,315.213z
			 M225.417,124.749c-0.878,2.149-0.968,5.078-1.397,7.924c-2.071,13.746-4.189,27.048-6.366,40.392
			c-0.902,5.501-1.588,11.053-2.799,16c-2.337,9.563-6.309,18.751-8.856,28.588c-2.599,10.023-3.683,21.451-5.282,32.309
			c-3.293,22.372-5.725,44.428-9.321,65.563c-3.593,21.132-8.786,41.163-14.604,60.43c4.086-2.817,6.785-7.281,9.478-11.494
			c2.813-4.394,5.228-9.053,7.456-13.828c2.185-4.682,4.904-9.223,7.457-13.827c12.668-22.817,25.727-45.876,36.818-69.753
			c-4.304-7.554-8.154-15.107-13.047-22.525c-3.379-5.115-7.975-9.684-11.65-14.912c-1.24-1.763-2.961-3.896-3.109-5.906
			c-0.133-1.791,0.754-3.867,1.401-5.747c1.927-5.614,3.976-11.069,5.899-16.001c2.82-7.218,5.341-14.24,8.703-20.507
			c16.325-0.062,28.709,4.635,45.36,3.73c1.066-5.443,2.79-9.646,5.124-14.294c1.529-3.036,5.641-10.179,3.421-15.07
			c-0.679-1.502-4.022-3.439-5.902-4.817c-6.532-4.768-12.575-9.007-18.955-13.515c-6.367-4.502-13.168-8.244-20.042-12.273
			c-2.017-1.184-5.794-3.541-7.452-3.574C227.025,122.901,225.928,123.5,225.417,124.749z M16.157,192.947
			c-0.226,0.285-0.842,0.613-0.62,1.088c17.351-0.924,33.46-3.093,47.538-7.299c-0.675-10.043-3.699-17.743-7.46-24.702
			C41.241,170.524,26.278,180.322,16.157,192.947z M288.334,162.189c-3.761,6.96-6.777,14.66-7.456,24.703
			c14.12,4.21,30.266,6.395,47.694,7.3C318.23,181.079,303.512,170.989,288.334,162.189z M76.901,192.483
			c4.815,17.351,21.943,23.211,43.5,23.305C113.632,200.528,99.441,190.435,76.901,192.483z M223.552,216.101
			c21.837-0.488,38.591-6.049,43.503-23.461C244.492,190.622,230.193,200.661,223.552,216.101z M73.948,204.909
			c-1.101-1.654-2.345-5.04-4.039-6.367c-1.439-1.127-4.639-1.538-6.992-1.397c-8.743,0.515-20.242,2.146-29.52,3.418
			c-3.281,0.444-7.265,0.761-9.317,1.709c-1.908,0.878-3.266,2.785-4.506,3.882c8.537,4.663,16.371,11.889,25.786,16.625
			c7.382,3.706,14.518,6.875,20.664,11.183c2.067,1.451,3.62,3.418,5.747,4.971c4.202,3.074,9.125,5.513,14.139,8.389
			c2.185,1.256,4.585,2.555,7.3,3.885c2.157,1.059,5.626,3.207,8.544,2.799c2.185-0.309,4.472-2.756,5.907-4.659
			c4.69-6.235,7.706-14.151,13.203-18.802c1.393-1.179,3.079-1.284,3.262-3.883C104.381,221.616,83.647,219.494,73.948,204.909z
			 M319.872,202.429c-2.271-1.05-6.25-1.218-9.629-1.709c-6.929-1.011-13.742-1.732-20.351-2.489
			c-3.466-0.395-7.027-1.187-10.41-1.085c-6.337,0.188-6.844,4.222-9.32,7.92c-4.229,6.313-10.207,10.246-17.71,13.207
			c-8.747,3.445-19.148,5.006-28.743,7.301c-1.323,0.316-2.801,0.577-3.883,1.396c0.348,2.567,2.146,2.751,3.574,4.042
			c3.309,2.997,6.293,7.53,8.853,12.118c1.838,3.293,5.677,10.543,10.102,11.03c2.864,0.312,6.22-1.735,8.385-2.798
			c2.704-1.33,5.122-2.633,7.305-3.886c5.009-2.871,9.937-5.317,14.135-8.389c2.114-1.545,3.582-3.558,5.595-4.97
			c6.375-4.488,13.41-7.305,20.815-11.03c9.36-4.706,17.187-12.231,25.79-16.777C323.125,205.206,321.784,203.306,319.872,202.429z
			 M152.554,366.168c-8.798-15.013-17.354-29.729-26.563-44.275c-6.168-9.738-11.451-20.147-16.625-30.604
			c-5.154-10.425-10.757-20.64-16.157-31.072c-19.044-10.738-39.017-24.693-58.412-35.728c-2.922-1.666-5.786-3.808-8.701-4.818
			c-0.581-0.203-1.361,0.546-1.865,0.62c0.531,2.271,2.766,3.41,4.194,4.971c10.437,11.4,20.936,22.575,32.313,32.938
			c9.563,8.705,19.941,17.725,28.739,27.035c5.966,6.301,9.766,15.363,14.144,22.988c2.231,3.893,4.931,7.412,7.608,11.029
			c10.472,14.163,21.845,27.963,31.693,42.723c2.454,3.68,5.001,7.336,7.768,10.874c2.661,3.41,5.291,7.265,9.478,9.169
			C159.253,375.931,155.457,371.116,152.554,366.168z M317.234,220.138c-11.287,5.639-22.247,12.879-33.25,19.887
			c-11.01,7.008-22.145,13.77-33.085,20.191c-11.693,20.421-20.519,42.176-32.938,61.521c-9.32,14.514-17.717,29.612-26.409,44.431
			c-2.931,4.999-6.875,9.817-7.765,16.005c4.066-1.928,6.801-5.626,9.473-9.012c2.764-3.497,5.338-7.234,7.769-10.879
			c9.935-14.896,21.314-28.63,31.689-42.719c2.692-3.648,5.209-7.269,7.46-11.186c4.436-7.718,8.393-16.621,14.292-22.837
			c9.005-9.485,19.153-18.458,28.743-27.187c11.369-10.359,22.024-21.635,32.313-32.781c1.467-1.592,3.543-2.918,4.19-5.127
			C318.788,219.845,317.855,219.825,317.234,220.138z M171.508,382.017c-0.234-0.027-0.414,0.086-0.621,0.156
			c-3.382,1.072-6.812,3.566-7.612,7.608c3.628,3.188,13.628,2.973,17.401,0C179.62,385.548,175.617,382.469,171.508,382.017z"/>
	</g>
</g>
</svg>
